<?xml version="1.0" standalone="no"?>
<!DOCTYPE svg PUBLIC "-//W3C//DTD SVG 20010904//EN"
 "http://www.w3.org/TR/2001/REC-SVG-20010904/DTD/svg10.dtd">
<svg version="1.0" xmlns="http://www.w3.org/2000/svg"
 width="640.000000pt" height="640.000000pt" viewBox="0 0 640.000000 640.000000"
 preserveAspectRatio="xMidYMid meet">
<metadata>
Created by potrace 1.11, written by Peter Selinger 2001-2013
</metadata>
<g transform="translate(0.000000,640.000000) scale(0.100000,-0.100000)"
fill="#000000" stroke="none">
<path d="M3525 5748 c-41 -24 -64 -65 -85 -148 -10 -42 -25 -94 -79 -275 -12
-39 -23 -79 -26 -90 -2 -11 -30 -105 -61 -210 -31 -104 -69 -237 -85 -295 -16
-58 -32 -112 -36 -120 -3 -8 -7 -20 -8 -25 -2 -6 -30 -107 -65 -225 -34 -118
-81 -284 -106 -368 -24 -85 -46 -157 -48 -161 -3 -4 -7 -18 -10 -32 -8 -40
-13 -57 -66 -234 -28 -93 -53 -178 -55 -189 -2 -10 -12 -44 -21 -75 -10 -31
-18 -58 -19 -61 -1 -3 -7 -25 -14 -50 -7 -25 -15 -52 -17 -60 -1 -8 -12 -46
-24 -85 -12 -38 -33 -110 -46 -160 -14 -49 -29 -99 -33 -110 -10 -22 -36 -117
-34 -125 0 -3 -4 -16 -9 -30 -5 -14 -12 -36 -15 -50 -2 -13 -9 -30 -15 -37 -6
-7 -8 -13 -4 -13 3 0 1 -12 -5 -27 -6 -16 -13 -37 -15 -48 -4 -19 -28 -104
-44 -155 -4 -14 -15 -50 -24 -80 -8 -30 -47 -165 -86 -300 -39 -135 -89 -308
-111 -385 -22 -77 -42 -146 -44 -153 -3 -7 -5 -14 -5 -17 -1 -3 -6 -19 -11
-37 -25 -81 -101 -345 -105 -368 -7 -33 22 -93 54 -112 15 -9 70 -28 122 -42
149 -42 232 -67 273 -82 20 -8 37 -11 37 -9 0 3 8 1 18 -4 11 -6 30 -12 43
-15 52 -11 97 -24 106 -29 5 -3 30 -9 56 -12 38 -5 54 -2 81 15 42 25 44 31
141 365 73 250 80 274 89 313 3 9 14 46 25 81 12 35 23 74 26 85 5 25 13 51
105 366 74 252 117 403 124 431 3 9 21 72 41 140 21 68 38 129 39 134 1 6 10
37 20 70 10 33 20 67 22 75 2 8 12 44 23 80 66 223 156 532 166 570 7 25 23
79 36 120 12 41 23 77 24 80 10 45 29 117 34 125 3 6 6 15 8 20 4 17 34 129
37 140 2 6 4 12 4 15 0 3 6 19 12 35 7 17 14 39 16 50 4 19 28 104 44 155 4
14 15 50 24 80 8 30 47 165 86 300 39 135 89 308 111 385 22 77 43 147 46 155
3 8 8 24 10 35 2 11 10 42 19 68 9 26 17 53 18 60 1 7 12 44 24 82 50 161 54
191 38 240 -13 37 -69 63 -251 115 -99 28 -218 63 -265 76 -180 53 -225 60
-255 42z"/>
<path d="M1515 4661 c-11 -5 -42 -30 -70 -55 -216 -202 -273 -255 -305 -286
-20 -19 -83 -78 -139 -130 -56 -52 -124 -115 -150 -140 -26 -25 -108 -101
-181 -170 -74 -69 -153 -143 -176 -165 -82 -77 -259 -243 -289 -270 -96 -88
-176 -168 -190 -189 -22 -33 -13 -101 17 -134 22 -23 76 -76 159 -153 65 -60
281 -263 319 -299 20 -19 88 -82 150 -140 62 -58 134 -125 160 -150 269 -254
480 -451 633 -592 53 -50 96 -66 143 -54 27 7 43 23 189 178 44 47 130 138
190 202 126 134 144 162 139 214 -3 31 -15 48 -72 102 -77 73 -173 158 -214
190 -15 12 -40 33 -55 48 -24 23 -116 105 -197 175 -22 20 -108 95 -185 162
-25 22 -58 52 -74 67 -16 15 -47 42 -69 60 -23 18 -47 39 -55 46 -14 15 -18
42 -5 42 4 0 26 17 49 38 23 20 62 56 88 80 26 23 48 42 50 42 3 0 17 12 33
28 28 26 102 92 212 187 30 26 60 52 65 59 6 6 39 36 75 66 35 30 72 62 80 70
9 8 47 42 85 75 38 33 80 71 94 84 14 13 33 28 41 35 34 24 57 71 55 108 -4
52 10 35 -271 333 -62 66 -134 143 -161 171 -26 29 -58 57 -70 63 -25 13 -69
13 -98 2z"/>
<path d="M4785 4659 c-22 -13 -60 -51 -235 -239 -63 -67 -145 -155 -182 -194
-73 -77 -86 -102 -82 -156 3 -39 29 -66 234 -245 108 -94 147 -129 204 -180 6
-5 65 -57 131 -115 66 -58 122 -107 125 -110 3 -3 59 -53 126 -112 132 -115
129 -108 64 -162 -35 -29 -144 -124 -184 -161 -12 -11 -46 -40 -75 -65 -29
-25 -70 -61 -91 -80 -21 -19 -51 -46 -67 -60 -16 -14 -62 -54 -102 -90 -41
-36 -83 -73 -95 -83 -94 -81 -147 -128 -186 -164 -25 -24 -48 -43 -51 -43 -4
0 -14 -18 -22 -39 -28 -68 -14 -98 100 -217 32 -33 99 -104 148 -158 229 -248
251 -265 316 -252 39 7 52 18 212 169 73 69 148 140 168 158 20 19 89 84 154
144 64 61 133 125 154 144 20 19 96 91 170 160 74 69 152 143 175 164 154 144
266 249 296 277 121 111 201 195 206 216 13 51 -4 90 -69 152 -113 108 -221
210 -431 407 -18 17 -88 82 -156 145 -67 63 -151 142 -186 175 -34 33 -108
103 -164 155 -57 52 -124 115 -150 140 -26 25 -89 83 -139 130 -51 47 -111
103 -134 126 -23 23 -53 48 -67 56 -31 18 -89 22 -115 7z"/>
</g>
</svg>
