<?xml version="1.0" encoding="UTF-8"?>
<svg width="14px" height="14px" viewBox="0 0 14 14" version="1.1" xmlns="http://www.w3.org/2000/svg" xmlns:xlink="http://www.w3.org/1999/xlink">
    <!-- Generator: Sketch 45.1 (43504) - http://www.bohemiancoding.com/sketch -->
    <title>Close Icon</title>
    <desc>Created with Sketch.</desc>
    <defs></defs>
    <g id="Page-1" stroke="none" stroke-width="1" fill="none" fill-rule="evenodd">
        <path d="M7,4.41421356 L3.12132034,0.535533906 C2.40727514,-0.178511302 1.24957911,-0.178511302 0.535533906,0.535533906 C-0.178511302,1.24957911 -0.178511302,2.40727514 0.535533906,3.12132034 L4.41421356,7 L0.535533906,10.8786797 C-0.178511302,11.5927249 -0.178511302,12.7504209 0.535533906,13.4644661 C1.24957911,14.1785113 2.40727514,14.1785113 3.12132034,13.4644661 L7,9.58578644 L10.8786797,13.4644661 C11.5927249,14.1785113 12.7504209,14.1785113 13.4644661,13.4644661 C14.1785113,12.7504209 14.1785113,11.5927249 13.4644661,10.8786797 L9.58578644,7 L13.4644661,3.12132034 C14.1785113,2.40727514 14.1785113,1.24957911 13.4644661,0.535533906 C12.7504209,-0.178511302 11.5927249,-0.178511302 10.8786797,0.535533906 L7,4.41421356 Z" id="Close-Icon" fill="#666666"></path>
    </g>
</svg>